<?xml version="1.0" standalone="no"?>
<!DOCTYPE svg PUBLIC "-//W3C//DTD SVG 20010904//EN"
 "http://www.w3.org/TR/2001/REC-SVG-20010904/DTD/svg10.dtd">
<svg version="1.0" xmlns="http://www.w3.org/2000/svg"
 width="256.000000pt" height="256.000000pt" viewBox="0 0 256.000000 256.000000"
 preserveAspectRatio="xMidYMid meet">
<metadata>
Created by potrace 1.11, written by Peter Selinger 2001-2013
</metadata>
<g transform="translate(0.000000,256.000000) scale(0.100000,-0.100000)"
fill="#000000" stroke="none">
<path d="M929 2488 c-4 -11 -4 -275 0 -283 16 -31 8 -33 -157 -35 -118 0 -169
-4 -174 -13 -6 -9 -8 -8 -8 2 0 8 -3 11 -6 8 -4 -4 -1 -13 6 -22 8 -10 9 -15
1 -15 -6 0 -11 -5 -11 -11 0 -5 3 -8 8 -6 4 3 7 -10 7 -29 0 -19 -3 -34 -7
-34 -5 0 -8 -5 -8 -11 0 -5 3 -8 8 -6 4 3 7 -10 7 -29 0 -19 -3 -34 -7 -34 -5
0 -8 -5 -8 -11 0 -5 4 -8 8 -5 12 7 9 -37 -2 -46 -6 -4 -4 -13 3 -22 9 -11 10
-16 2 -16 -6 0 -11 -5 -11 -11 0 -5 5 -7 12 -3 7 4 8 3 4 -4 -5 -8 -57 -12
-167 -12 -120 0 -159 -3 -160 -12 -3 -44 -4 -1745 -1 -1755 5 -16 1308 -19
1332 -3 13 9 13 10 0 10 -12 0 -12 2 -1 9 9 6 10 10 2 16 -9 5 -9 10 0 21 9
11 8 14 -2 14 -11 0 -11 2 1 10 13 9 13 10 0 10 -12 0 -12 2 -1 9 9 6 10 10 2
16 -9 5 -9 10 0 21 9 11 8 14 -2 14 -11 0 -11 2 1 10 13 9 13 10 0 10 -12 0
-12 2 -1 9 9 6 10 10 2 16 -9 5 -9 10 0 21 9 11 8 14 -2 14 -9 0 -10 3 -4 8
14 10 17 32 4 32 -8 0 -8 4 0 14 9 11 9 15 -1 19 -7 3 64 6 157 6 l171 1 -1
52 c0 29 -4 58 -8 65 -4 6 -4 14 1 17 10 6 9 86 -1 103 -4 6 -4 14 1 17 5 3 8
21 7 40 l-2 36 167 0 c138 0 169 3 173 15 4 8 2 17 -4 21 -6 3 -6 11 -1 17 10
14 9 87 -1 104 -4 6 -3 14 3 18 11 7 9 33 -3 52 -5 7 -4 13 0 13 11 0 10 101
0 117 -4 7 -4 14 1 17 10 6 9 87 -1 103 -4 7 -4 14 1 16 9 6 8 169 -1 184 -4
7 -4 14 1 17 10 6 9 87 -1 103 -4 7 -3 14 3 18 11 7 9 33 -3 53 -5 6 -4 12 0
12 11 0 10 101 0 117 -4 7 -4 14 1 17 10 6 9 87 -1 103 -4 7 -4 14 1 17 5 3 8
33 6 67 l-2 62 -258 258 -259 259 -407 0 c-225 0 -408 -1 -409 -2z m742 -167
c0 -9 1 -107 1 -218 0 -146 3 -203 11 -205 7 0 102 -2 212 -3 110 -2 205 -3
210 -4 7 -1 10 -178 10 -513 l0 -513 -85 -1 c-47 0 -90 1 -96 3 -6 2 -10 26
-9 54 1 27 -2 52 -7 55 -5 3 -5 11 -1 17 10 17 11 97 1 103 -5 3 -5 11 -1 17
11 18 10 101 -2 109 -7 5 -7 8 0 8 12 0 14 169 2 187 -4 6 -4 14 1 17 10 6 9
86 -1 103 -4 6 -4 14 1 17 14 8 7 87 -8 96 -8 6 -12 10 -9 10 4 0 -108 115
-249 255 l-255 255 -161 0 -161 0 0 60 c0 33 3 60 6 60 3 0 4 11 2 24 l-5 23
296 0 c266 1 296 -1 297 -16z m-747 -312 c9 -9 15 -59 6 -54 -10 6 -8 -15 3
-32 5 -8 4 -13 -2 -13 -6 0 -11 -5 -11 -11 0 -5 6 -7 13 -3 9 5 9 4 0 -6 -8
-9 -9 -19 -2 -32 9 -17 4 -18 -91 -18 l-100 0 0 84 c0 47 4 86 10 88 14 4 169
2 174 -3z m407 -19 c5 -119 3 -399 -3 -397 -4 1 -59 53 -122 115 -103 102
-153 171 -129 179 9 3 8 76 -1 100 -9 22 24 28 143 28 l111 0 1 -25z m-751
-312 c0 -5 4 -7 8 -4 5 3 9 -1 9 -9 0 -8 -5 -11 -11 -8 -6 4 -5 -1 3 -10 9
-11 10 -17 2 -17 -6 0 -11 -5 -11 -11 0 -5 3 -8 8 -6 4 3 7 -15 7 -39 0 -24
-3 -44 -7 -44 -5 0 -8 -5 -8 -11 0 -5 3 -8 8 -6 4 3 7 -15 7 -39 0 -24 -3 -44
-7 -44 -5 0 -8 -5 -8 -11 0 -5 4 -8 8 -5 5 3 9 -1 9 -9 0 -8 -4 -15 -9 -15 -4
0 -8 -5 -8 -11 0 -5 3 -8 8 -6 4 3 7 -15 7 -39 0 -24 -3 -44 -7 -44 -5 0 -8
-5 -8 -11 0 -5 3 -8 8 -6 4 3 7 -15 7 -39 0 -24 -3 -44 -7 -44 -5 0 -8 -5 -8
-11 0 -5 4 -8 8 -5 5 3 9 -1 9 -9 0 -8 -4 -15 -9 -15 -4 0 -8 -5 -8 -11 0 -5
3 -8 8 -6 4 3 7 -15 7 -39 0 -24 -3 -44 -7 -44 -5 0 -8 -5 -8 -11 0 -5 3 -8 8
-6 4 3 7 -15 7 -39 0 -24 -3 -44 -7 -44 -5 0 -8 -5 -8 -11 0 -5 4 -8 8 -5 5 3
9 -1 9 -9 0 -8 -4 -15 -9 -15 -4 0 -8 -5 -8 -11 0 -5 3 -8 8 -6 4 3 7 -15 7
-39 0 -24 -3 -44 -7 -44 -5 0 -8 -5 -8 -11 0 -5 3 -8 8 -6 4 3 7 -15 7 -39 0
-24 -3 -44 -7 -44 -5 0 -8 -5 -8 -11 0 -5 4 -8 8 -5 5 3 9 -1 9 -9 0 -8 -4
-15 -9 -15 -4 0 -8 -5 -8 -11 0 -5 3 -8 8 -6 4 3 7 -6 7 -19 0 -13 -3 -24 -7
-24 -5 0 -8 -5 -8 -11 0 -5 3 -8 8 -6 4 3 7 -10 7 -29 0 -19 -3 -34 -7 -34 -5
0 -8 -5 -8 -11 0 -5 3 -8 8 -6 4 3 7 -10 7 -29 0 -19 -3 -34 -7 -34 -5 0 -8
-5 -8 -11 0 -5 4 -8 8 -5 5 3 6 -8 4 -25 l-4 -29 431 0 431 0 0 -84 0 -85
-350 2 c-193 1 -350 -1 -350 -5 0 -4 -6 -5 -14 -2 -19 7 -226 10 -226 4 0 -3
-21 -3 -47 0 l-48 5 -1 725 c0 399 1 730 3 735 4 13 163 15 163 3z m356 0 c4
-5 2 -8 -4 -8 -7 0 -12 -5 -12 -11 0 -5 6 -7 13 -3 9 6 9 5 0 -7 -8 -9 -9 -20
-3 -29 13 -21 12 -33 -2 -24 -7 5 -8 3 -3 -6 10 -17 13 -600 3 -593 -5 2 -4
-7 2 -21 6 -17 6 -26 0 -26 -6 0 -10 -5 -10 -11 0 -5 6 -7 13 -3 9 5 9 4 0 -6
-9 -10 -9 -18 -1 -34 8 -15 8 -21 -1 -24 -6 -2 -11 -8 -11 -13 0 -6 6 -7 13
-3 9 5 9 4 0 -6 -9 -10 -9 -18 -1 -34 8 -15 8 -21 -1 -24 -6 -2 -11 -8 -11
-13 0 -6 6 -7 13 -3 9 6 9 4 2 -7 -6 -8 -10 -23 -10 -34 0 -19 8 -20 263 -23
l262 -2 0 -85 c0 -47 -3 -85 -7 -86 -54 -5 -233 -2 -233 4 0 5 -5 5 -11 1 -17
-10 -229 -11 -229 -1 0 5 -5 5 -12 1 -13 -8 -206 -9 -214 -2 -6 6 -6 1127 0
1136 6 10 182 9 192 0z m839 -456 c1 -188 -1 -346 -5 -350 -3 -4 -39 -8 -81
-8 -63 0 -79 3 -88 18 -8 14 -8 18 1 18 9 0 9 3 0 12 -8 8 -8 17 -1 31 8 14 8
18 0 13 -6 -4 -11 -2 -11 3 0 6 5 11 11 11 8 0 8 4 0 14 -9 11 -9 16 0 21 8 6
7 10 -2 16 -11 7 -11 9 1 9 13 0 13 1 0 10 -12 8 -12 10 -1 10 10 0 11 3 2 14
-9 11 -9 16 0 21 8 6 7 10 -2 16 -11 7 -11 9 1 9 13 0 13 1 0 10 -12 8 -12 10
-1 10 10 0 11 3 2 14 -9 11 -9 16 0 21 8 6 7 10 -2 16 -11 7 -11 9 1 9 13 0
13 1 0 10 -13 8 -13 10 0 10 11 0 11 3 2 12 -8 8 -9 15 -1 25 9 10 8 13 -2 13
-12 0 -12 2 -1 9 8 4 14 12 14 16 0 4 -6 12 -14 16 -7 5 -8 9 -2 9 6 0 -48 58
-119 128 l-130 129 214 -1 214 -1 0 -343z m-620 18 c4 7 12 7 26 0 14 -8 19
-7 19 1 0 9 3 9 14 0 10 -8 16 -9 21 -1 4 7 12 7 26 0 13 -8 25 -7 39 0 14 7
26 8 39 0 14 -7 22 -7 26 0 5 8 11 8 20 0 10 -8 19 -8 33 -1 11 6 22 7 26 4 3
-3 6 -88 6 -189 0 -137 -3 -183 -12 -186 -7 -2 -89 -4 -182 -4 l-170 1 -7 29
c-5 17 -4 35 1 41 6 7 8 14 5 17 -3 2 -5 27 -5 54 0 27 0 60 -1 74 -1 42 -1
124 0 138 1 17 43 32 58 20 7 -6 14 -5 18 2z m621 -615 c0 -53 -4 -85 -10 -86
-60 -5 -136 -3 -155 3 -19 7 -21 11 -11 23 10 12 10 15 0 15 -10 0 -10 3 0 15
10 12 10 15 -1 16 -10 0 -11 2 -2 6 9 3 10 10 3 24 -8 14 -7 19 2 19 9 0 9 3
1 11 -6 6 -9 18 -6 25 4 10 27 14 92 14 l86 0 1 -85z"/>
</g>
</svg>
